#!OML:ASF F:\VICON\USERDATA\INSTALL\Justin_Nancy\Justin_Nancy.ASF
:FULLY-SPECIFIED
:DEGREES
128
root 0.593481 17.495 -8.9739 1.9469 -4.18844 -1.49394
lowerback 5.01141 1.02971 1.17179
upperback -0.279404 1.5142 2.2974
thorax -3.13053 0.75283 1.59361
lowerneck -16.4291 -3.25053 -8.82954
upperneck 22.329 -3.3773 4.93188
head 10.0681 -1.74478 2.76046
rclavicle -1.18774e-014 -1.03368e-014
rhumerus -25.425 -11.9358 -78.6652
rradius 35.2336
rwrist 5.17749
rhand -14.3607 10.1082
rfingers 7.12502
rthumb 11.7813 -19.5405
lclavicle -1.18774e-014 -1.03368e-014
lhumerus -38.7229 19.2773 79.2445
lradius 19.2384
lwrist -18.2387
lhand -13.2802 27.1879
lfingers 7.12502
lthumb 12.823 416.774
rfemur 9.33838 3.55262 25.8348
rtibia 29.9501
rfoot -4.78946 -3.57215
rtoes -13.954
lfemur -26.4123 0.489384 -20.6112
ltibia 24.457
lfoot -1.97945 3.32575
ltoes -4.35131
129
root 0.614209 17.5166 -8.79891 1.93186 -3.95481 -1.48846
lowerback 4.9186 1.00062 1.29344
upperback -0.187531 1.47773 2.30872
thorax -2.98005 0.733018 1.54208
lowerneck -16.9575 -3.36356 -8.86381
upperneck 22.4497 -3.46748 4.88534
head 10.2191 -1.7892 2.73512
rclavicle 1.9133e-014 6.36111e-015
rhumerus -25.6551 -12.6948 -78.4189
rradius 35.0394
rwrist 5.41393
rhand -14.0286 9.68078
rfingers 7.12502
rthumb 12.1015 -19.9493
lclavicle 1.9133e-014 6.36111e-015
lhumerus -38.3377 19.6521 79.194
lradius 18.9821
lwrist -18.7449
lhand -13.0696 26.6804
lfingers 7.12502
lthumb 13.0261 416.254
rfemur 8.21105 3.17363 25.5565
rtibia 32.4016
rfoot -2.83913 -2.85439
rtoes -11.8221
lfemur -25.9219 0.560519 -20.7738
ltibia 24.6571
lfoot -2.18338 3.05776
ltoes -2.90319
130
root 0.628982 17.5355 -8.63512 1.81865 -3.88902 -1.66521
lowerback 5.13013 0.990961 1.54396
upperback -0.210701 1.48795 2.35146
thorax -3.11793 0.733966 1.44119
lowerneck -17.3441 -3.42971 -8.97982
upperneck 22.769 -3.51836 4.95977
head 10.4163 -1.81289 2.77597
rclavicle -5.56597e-015 -1.43125e-014
rhumerus -26.2246 -13.0748 -78.24
rradius 34.927
rwrist 5.44603
rhand -13.9885 9.9638
rfingers 7.12502
rthumb 12.1402 -19.664
lclavicle -5.56597e-015 -1.43125e-014
lhumerus -37.9957 19.9227 79.0829
lradius 18.5788
lwrist -19.1845
lhand -13.3025 25.8819
lfingers 7.12502
lthumb 12.8016 415.469
rfemur 7.0216 3.01922 25.5495
rtibia 34.8442
rfoot -0.373606 -1.98281
rtoes -9.15499
lfemur -25.2656 0.92914 -20.7449
ltibia 24.775
lfoot -2.3799 2.66734
ltoes -1.27353
131
root 0.646665 17.554 -8.46867 1.55732 -3.83366 -1.60842
lowerback 5.28219 0.956644 1.57626
upperback -0.197549 1.4474 2.31554
thorax -3.18746 0.712656 1.38676
lowerneck -17.3177 -3.42089 -8.98847
upperneck 22.8425 -3.51732 4.99409
head 10.4386 -1.81046 2.79121
rclavicle -2.16427e-014 7.95139e-015
rhumerus -26.8614 -13.2365 -78.1463
rradius 34.8186
rwrist 5.41476
rhand -13.9182 10.3458
rfingers 7.12502
rthumb 12.208 -19.2779
lclavicle -2.16427e-014 7.95139e-015
lhumerus -37.9078 19.5602 79.2595
lradius 18.7249
lwrist -18.8665
lhand -12.9881 26.1899
lfingers 7.12502
lthumb 13.1047 415.758
rfemur 5.94761 2.735 25.2109
rtibia 37.2561
rfoot 2.12304 -1.03839
rtoes -5.00916
lfemur -24.3895 1.27801 -20.987
ltibia 24.8053
lfoot -2.74668 2.02239
ltoes -0.586941
132
root 0.664057 17.576 -8.29919 1.42491 -3.70462 -1.19999
lowerback 5.1432 0.910954 1.21273
upperback -0.149883 1.35654 2.24263
thorax -3.06534 0.673157 1.52504
lowerneck -17.23 -3.42892 -9.12241
upperneck 22.7344 -3.50007 5.01214
head 10.3847 -1.81189 2.82154
rclavicle -3.2054e-015 -1.66979e-014
rhumerus -27.2273 -13.395 -77.9954
rradius 34.5656
rwrist 5.52372
rhand -13.752 10.276
rfingers 7.12502
rthumb 12.3682 -19.3382
lclavicle -3.2054e-015 -1.66979e-014
lhumerus -37.7753 18.99 79.7285
lradius 19.1486
lwrist -18.269
lhand -12.7334 27.0007
lfingers 7.12502
lthumb 13.3502 416.553
rfemur 4.73501 2.39188 24.4788
rtibia 39.6275
rfoot 4.42355 0.00378549
rtoes -0.621784
lfemur -23.6241 1.30613 -21.5931
ltibia 24.7684
lfoot -2.77861 1.72093
ltoes -0.0612012
133
root 0.684436 17.5965 -8.12998 1.3197 -3.7402 -0.756505
lowerback 4.97607 0.912555 0.878772
upperback -0.0974352 1.32981 2.12311
thorax -2.9214 0.664247 1.59403
lowerneck -17.1039 -3.38993 -9.23674
upperneck 22.6026 -3.44713 5.11268
head 10.3127 -1.78561 2.88338
rclavicle 1.67973e-014 2.22639e-014
rhumerus -27.7239 -13.2806 -77.9288
rradius 34.5435
rwrist 5.22833
rhand -13.4282 9.82516
rfingers 7.12502
rthumb 12.6805 -19.7699
lclavicle 1.67973e-014 2.22639e-014
lhumerus -37.5013 18.698 79.9877
lradius 19.2046
lwrist -18.1049
lhand -13.2516 26.575
lfingers 7.12502
lthumb 12.8507 416.159
rfemur 3.49124 2.22889 23.6854
rtibia 42.0076
rfoot 6.26999 1.14097
rtoes 3.16686
lfemur -22.7898 1.28226 -22.2221
ltibia 24.5799
lfoot -2.7654 1.80993
ltoes 0.814442
134
root 0.702388 17.6109 -7.96085 1.06581 -3.85858 -0.344832
lowerback 5.07194 0.977011 0.577869
upperback -0.0547833 1.395 1.98713
thorax -2.93632 0.700078 1.61658
lowerneck -17.0864 -3.37471 -9.19637
upperneck 22.5749 -3.45099 5.16192
head 10.2993 -1.77796 2.89357
rclavicle -6.80837e-015 -1.59028e-014
rhumerus -28.4031 -13.2127 -77.8178
rradius 34.5991
rwrist 4.80132
rhand -13.0118 9.93418
rfingers 7.12502
rthumb 13.0818 -19.6355
lclavicle -6.80837e-015 -1.59028e-014
lhumerus -37.2021 18.2587 80.2521
lradius 19.1878
lwrist -18.0956
lhand -13.6564 25.6241
lfingers 7.12502
lthumb 12.4604 415.233
rfemur 2.35195 2.21027 22.9873
rtibia 44.3989
rfoot 7.93326 1.84055
rtoes 7.76646
lfemur -21.7697 1.31242 -22.8052
ltibia 24.3331
lfoot -3.19093 2.10177
ltoes 3.06633
135
root 0.714417 17.6227 -7.80284 0.841251 -3.86626 0.0480242
lowerback 5.30736 0.990707 0.182836
upperback -0.056128 1.39032 1.89717
thorax -3.0769 0.703223 1.74218
lowerneck -17.0821 -3.36269 -9.10385
upperneck 22.497 -3.44454 5.1065
head 10.2668 -1.77257 2.85791
rclavicle -1.11568e-014 2.38542e-015
rhumerus -28.8394 -13.2159 -77.7175
rradius 34.3619
rwrist 4.85579
rhand -12.6634 9.92236
rfingers 7.12502
rthumb 13.4177 -19.6255
lclavicle -1.11568e-014 2.38542e-015
lhumerus -37.0626 17.36 80.7628
lradius 19.6438
lwrist -17.4579
lhand -12.9692 26.2488
lfingers 7.12502
lthumb 13.1229 415.816
rfemur 1.09284 2.16528 22.4117
rtibia 46.7924
rfoot 9.01048 1.76349
rtoes 12.1777
lfemur -20.8866 1.38819 -23.3529
ltibia 24.1562
lfoot -3.74803 2.10062
ltoes 5.47526
136
root 0.725979 17.6371 -7.64485 0.805755 -3.9068 0.440493
lowerback 5.21781 1.00191 -0.250755
upperback -0.0278301 1.37548 1.8364
thorax -3.00571 0.701694 1.92593
lowerneck -17.0768 -3.35256 -9.09151
upperneck 22.3534 -3.40611 5.01282
head 10.2093 -1.763 2.8255
rclavicle -1.73688e-014 -2.3059e-014
rhumerus -28.9845 -13.1341 -77.6487
rradius 33.9032
rwrist 5.07038
rhand -12.6995 10.1815
rfingers 7.12502
rthumb 13.3829 -19.3687
lclavicle -1.73688e-014 -2.3059e-014
lhumerus -36.7528 16.3085 81.4186
lradius 20.0889
lwrist -16.5613
lhand -12.3817 27.0449
lfingers 7.12502
lthumb 13.6892 416.575
rfemur -0.332157 2.08729 21.8312
rtibia 49.1501
rfoot 9.02142 1.2544
rtoes 12.2658
lfemur -20.2039 1.27185 -23.8753
ltibia 24.0472
lfoot -3.66768 1.99966
ltoes 3.45654
